<svg id="Layer_4" data-name="Layer 4" xmlns="http://www.w3.org/2000/svg" viewBox="0 0 100 32"><defs><style>.cls-1{fill:#7dc22b;}{fill:#fff;}</style></defs><title>logo</title><path class="cls-1" d="M31.469,1.193a1.078,1.078,0,0,0-.76-0.762A22.526,22.526,0,0,0,25.569,0C19.137,0,15.28,3.45,12.4,8H5.908A3.275,3.275,0,0,0,3.237,9.655l-3.08,6.176A1.78,1.78,0,0,0,0,16.5,1.5,1.5,0,0,0,1.5,18H7.963l-1.4,1.4a2.04,2.04,0,0,0,0,2.828l3.171,3.182a2.027,2.027,0,0,0,2.821,0l1.4-1.4V30.5a1.5,1.5,0,0,0,1.5,1.5,1.775,1.775,0,0,0,.667-0.157l6.151-3.087a3.277,3.277,0,0,0,1.651-2.679V19.55C28.443,16.655,31.9,12.774,31.9,6.356A22.252,22.252,0,0,0,31.469,1.193ZM23.926,10.5A2.5,2.5,0,1,1,26.418,8,2.5,2.5,0,0,1,23.926,10.5Z" transform="translate(0 0)"/> </svg>